<svg width="180" height="58" viewBox="0 0 180 58" fill="none" xmlns="http://www.w3.org/2000/svg">
  <path d="M16 44C10.2 44 6 40.1 6 34.7C6 30 9.3 26.5 14.6 24L20.9 21C24.1 19.5 25.4 18.1 25.4 16.1C25.4 13.5 23.3 11.8 20.3 11.8C16.6 11.8 14.1 13.5 11.9 16.9L7.6 14.2C10.4 9.5 14.8 7 20.6 7C27 7 31 10.5 31 16.4C31 21.2 28.1 24.1 23.5 26.3L17.2 29.3C14.1 30.8 12.2 32.4 12.2 34.8C12.2 37.5 14.2 39.3 17.2 39.3C21 39.3 23.7 37.3 26.1 33.3L30.7 35.9C27.4 41.5 22.8 44 16.8 44H16Z" fill="#4A4F57"/>
  <text x="36" y="37" fill="#4A4F57" font-family="Inter, Arial, sans-serif" font-size="44" font-weight="500" letter-spacing="-0.02em">prize</text>
  <text x="89" y="52" fill="#4A4F57" font-family="Inter, Arial, sans-serif" font-size="10" font-weight="700" letter-spacing="0.18em">BY RADISSON</text>
</svg>
